<?xml version="1.0" encoding="UTF-8"?>
<svg id="Layer_2" data-name="Layer 2" xmlns="http://www.w3.org/2000/svg" viewBox="0 0 375.58 132.55">
  <defs>
    <style>
      .cls-1 {
        fill: #fff;
        stroke: #000;
        stroke-miterlimit: 10;
      }

      .cls-2 {
        fill: #181f1f;
      }

      .cls-2, .cls-3, .cls-4, .cls-5, .cls-6, .cls-7, .cls-8, .cls-9 {
        stroke-width: 0px;
      }

      .cls-3 {
        fill: #f1eccd;
      }

      .cls-4 {
        fill: #f2c355;
      }

      .cls-5 {
        fill: #352017;
      }

      .cls-6 {
        fill: #194556;
      }

      .cls-7 {
        fill: #f8df8f;
      }

      .cls-8 {
        fill: #352017;
      }

      .cls-9 {
        fill: #2c7280;
      }
    </style>
  </defs>
  <g id="Layer_1-2" data-name="Layer 1">
    <g>
      <path class="cls-8" d="M40.78,8.09c-7.67,9.67-12.23,21.89-12.18,35.18.02,6.57,1.17,12.88,3.26,18.73,10.34-8.05,22.78-18.06,31.23-25.12q7.2,5.91,14.4,11.8l.3-10.6,7.52-.13-.09,17.6,20.49,17.54-.19,4.44-5.95-.09.04,20.1c5.74-1.54,11.13-3.96,16-7.11-9.88,18.76-29.54,31.59-52.22,31.66-.07,0-.13,0-.2,0-19.94,0-37.59-9.88-48.31-25-.39-.56-.77-1.13-1.16-1.7-2.89-4.4-5.22-9.21-6.87-14.33-.88-2.73-1.57-5.54-2.05-8.43-.51-3.11-.79-6.3-.8-9.55-.03-10.44,2.64-20.26,7.36-28.79.54-.97,1.1-1.92,1.69-2.87,6.54-10.39,16.23-18.61,27.73-23.33M50.56,2.28c.9-1.12-.27-2.7-1.61-2.18C24.66,9.5,16.22,18.85,9.66,29.29c-.68,1.1-1.27,2.1-1.81,3.06C2.68,41.72-.04,52.35,0,63.09c.01,3.37.3,6.8.85,10.18.51,3.05,1.24,6.08,2.19,9.01,1.74,5.4,4.2,10.54,7.33,15.3.42.62.82,1.21,1.22,1.79,11.86,16.73,31.14,26.7,51.59,26.7h.21c23.45-.08,44.81-13.03,55.74-33.8l4.33-8.23c.75-1.43-.89-2.93-2.24-2.05l-7.81,5.06c-3.1,2.01-6.39,3.68-9.83,4.98l-.02-10.55,1.88.03,3.89.06.16-3.89.19-4.44.08-1.94-1.48-1.26-19.08-16.34.08-15.75.02-4.09-4.09.07-7.52.13-3.82.07-.11,3.82-.07,2.46c-2.15-1.77-3.9-3.2-8.1-6.64l-2.56-2.1-2.54,2.13c-7.08,5.92-17.25,14.14-26.5,21.42-.93-3.9-1.41-7.91-1.42-11.97-.04-12,3.87-23.3,11.32-32.68l6.64-8.29Z"/>
      <g>
        <path class="cls-6" d="M105.7,73.08l-.18,4.44-5.95-.09.04,20.1c-1.57.42-3.17.77-4.79,1.06-.26-7.47.37-14.96.19-22.4-.09-3.6.11-3.16-1.5-4.78-5.43-5.46-23.45-19.03-30.62-25.19-8.23,7.43-17.15,14.07-25.57,21.28-.74.63-1.46,1.29-2.19,1.96-1.1-2.08-2.08-4.24-2.92-6.46l-.37-1.01c10.35-8.05,22.78-18.05,31.23-25.12q7.2,5.9,14.4,11.8l.31-10.6,7.52-.14-.09,17.6,20.48,17.54Z"/>
        <path class="cls-3" d="M13.72,95.39c.38.57.76,1.13,1.15,1.69"/>
        <path class="cls-2" d="M95,76.19c-10.88-8.02-20.69-17.55-31.19-26.1-8.96,7.49-18.22,14.61-27.01,22.29-.58-.96-1.13-1.93-1.66-2.92.72-.67,1.44-1.33,2.19-1.96,8.41-7.21,17.33-13.85,25.57-21.28,7.17,6.17,25.18,19.73,30.62,25.19,1.61,1.62,1.41,1.18,1.5,4.78Z"/>
        <path class="cls-9" d="M94.82,98.59c-.62.11-1.23.2-1.85.3-2.55.36-5.16.56-7.81.57-1.47,0-2.93-.05-4.37-.15-13.5-.99-25.69-6.74-34.88-15.58-2.99-2.88-5.66-6.08-7.97-9.55-.39-.59-.77-1.18-1.14-1.79,8.79-7.68,18.06-14.8,27.01-22.29,10.5,8.56,20.31,18.09,31.19,26.1.18,7.44-.45,14.94-.19,22.4Z"/>
        <path class="cls-1" d="M36.8,72.38c-.58-.96-1.13-1.93-1.66-2.92l1.66,2.92Z"/>
        <path class="cls-4" d="M115.6,90.42c-9.88,18.76-29.53,31.59-52.21,31.66-20.02.07-37.75-9.82-48.51-25-.4-.56-.78-1.12-1.15-1.69-2.9-4.41-5.22-9.21-6.87-14.34-.88-2.73-1.57-5.54-2.04-8.43-.51-3.11-.79-6.29-.8-9.54-.03-10.44,2.64-20.26,7.36-28.8.54-.97,1.1-1.92,1.69-2.86,6.54-10.4,16.23-18.62,27.73-23.33-7.66,9.66-12.22,21.89-12.18,35.18.02,6.57,1.17,12.87,3.25,18.72l.37,1.01c.84,2.22,1.81,4.38,2.92,6.46.52.99,1.08,1.96,1.66,2.92.37.6.75,1.2,1.14,1.79,2.3,3.47,4.98,6.68,7.97,9.55,2.92,2.81,6.15,5.31,9.63,7.44,4.85,2.98,10.2,5.25,15.88,6.65,3.04.75,6.17,1.26,9.37,1.49,1.44.11,2.9.16,4.37.15,2.65,0,5.25-.21,7.81-.57.62-.09,1.24-.19,1.85-.3,1.62-.29,3.22-.64,4.79-1.06,5.75-1.54,11.13-3.96,16-7.12Z"/>
        <path class="cls-5" d="M71.37,84.18l.04,13.64c-5.68-1.4-11.02-3.66-15.88-6.65l-.02-6.94c-.01-4.38,3.52-7.94,7.9-7.95,2.19,0,4.17.87,5.61,2.3,1.44,1.43,2.33,3.41,2.34,5.6Z"/>
        <g>
          <path class="cls-7" d="M61.19,65.95h-3.53c.19-.85.61-1.63,1.25-2.27.63-.64,1.41-1.07,2.27-1.26v3.53Z"/>
          <path class="cls-7" d="M61.21,71.48c-1.76-.38-3.15-1.76-3.54-3.52h3.53s.01,3.52.01,3.52Z"/>
          <path class="cls-7" d="M66.73,67.93h0c-.19.87-.61,1.65-1.24,2.29-.64.63-1.42,1.06-2.28,1.25v-3.53s3.52-.01,3.52-.01Z"/>
          <g>
            <path class="cls-7" d="M66.72,65.93h-3.53s-.01-3.51-.01-3.51c1.76.38,3.15,1.76,3.54,3.51Z"/>
            <path class="cls-8" d="M68.75,65.93c-.44-2.87-2.71-5.13-5.58-5.55-.31-.05-.64-.07-.97-.07h-.03c-.34,0-.67.03-1,.09-2.86.43-5.11,2.71-5.53,5.57-.06.32-.08.65-.08.98v.02c0,.34.03.68.09,1,.43,2.86,2.71,5.11,5.57,5.53.32.06.65.08.98.08h.02c.34,0,.67-.03,1-.08,1.39-.21,2.68-.86,3.68-1.87,1.01-1.02,1.66-2.31,1.85-3.7.06-.31.08-.64.08-.96v-.04c0-.34-.03-.68-.08-1ZM58.91,63.68c.63-.64,1.41-1.07,2.27-1.26v3.53s-3.52.01-3.52.01c.19-.86.61-1.64,1.25-2.28ZM57.67,67.96h3.53s.01,3.52.01,3.52c-1.76-.38-3.15-1.76-3.54-3.52ZM63.18,62.42c1.76.38,3.15,1.76,3.54,3.51h-3.53s-.01-3.51-.01-3.51ZM66.73,67.94c-.19.86-.61,1.64-1.24,2.28-.64.63-1.42,1.06-2.28,1.25v-3.53s3.52-.01,3.52-.01h0Z"/>
          </g>
        </g>
      </g>
    </g>
    <g>
      <path class="cls-5" d="M98.82,55.12c-2.09-1.5-3.15-4.23-3.16-8.16,0-1.68.23-4.06.7-7.13.42-2.45.72-4.58.88-6.41.16-1.82.24-3.82.23-5.98-.01-3.02-.19-5.69-.53-7.99l-1.44.22c-.38,0-.65-.08-.79-.25-.15-.17-.22-.49-.22-.97,0-1.01.11-2,.35-2.99.24-.98.57-1.79,1-2.42.81-1.15,2.06-1.83,3.74-2.03,1.97-.25,4.55-.46,7.74-.64,3.19-.18,5.94-.27,8.24-.28,4.42-.01,7.03.07,7.85.26.67.09,1.15.3,1.44.61.29.31.43.78.44,1.4,0,1.44-.5,2.76-1.5,3.96-.57.77-1.12,1.3-1.65,1.59-.53.29-1.25.41-2.16.37-3.55-.23-6.51-.34-8.86-.33-2.54,0-4.87.11-6.98.31.01,3.26-.24,7.08-.75,11.45,4.37-.3,9.33-.46,14.9-.48,1.01,0,1.68.1,2.02.32.34.22.51.71.51,1.47,0,.82-.2,1.69-.6,2.63-.41.94-.94,1.72-1.61,2.35-.34.34-.67.58-1.01.72-.34.15-.77.2-1.3.15-3.12-.13-6.67-.19-10.66-.18h-3.24c-.38,2.41-.56,4.24-.56,5.48,0,2.59.69,4.42,2.03,5.5,1.35,1.08,3.56,1.61,6.63,1.6,1.97,0,3.82-.19,5.54-.56,1.73-.37,3.48-.98,5.25-1.85.67-.39,1.17-.58,1.51-.58.53,0,1.04.37,1.55,1.11.51.74.76,1.54.76,2.41,0,1.06-.38,2.04-1.14,2.96-.77.92-1.82,1.73-3.16,2.46-1.44.68-3.19,1.2-5.25,1.57-2.06.37-4.22.55-6.48.56-4.75.02-8.17-.73-10.27-2.23Z"/>
      <path class="cls-5" d="M128.15,74.97c-.77-.84-1.16-2.24-1.17-4.21,0-2.26.51-6.24,1.54-11.96,1.36-8.26,2.04-14.05,2.03-17.36,0-2.02-.24-3.65-.7-4.89-.46-1.25-1.27-2.06-2.42-2.44-.63-.24-1.09-.48-1.41-.71-.31-.24-.47-.6-.47-1.08,0-.67.27-1.43.82-2.27.55-.84,1.31-1.55,2.3-2.13.98-.58,2.07-.87,3.27-.87,2.88,0,4.33,2.03,4.34,6.11,0,1.2-.09,2.3-.28,3.31,1.48-2.88,3.37-5.21,5.67-6.97,2.3-1.76,4.81-2.64,7.55-2.65,2.88,0,5.15.96,6.81,2.89,1.66,1.94,2.5,4.56,2.51,7.88.01,3.31-.65,6.47-1.98,9.48-1.33,3-3.21,5.45-5.63,7.33-2.42,1.88-5.16,2.82-8.23,2.83-3.12,0-5.76-1.06-7.93-3.21-.52,3.7-.77,6.87-.76,9.51,0,1.87.21,3.29.63,4.25.41.96,1.22,1.7,2.42,2.22.53.29.79.67.8,1.15,0,.53-.2,1.19-.61,1.98-.41.79-1.09,1.5-2.04,2.13-.96.63-2.16.94-3.6.95-1.54,0-2.69-.41-3.46-1.25ZM150.59,46.96c1.53-1.66,2.29-3.69,2.28-6.09,0-1.92-.54-3.43-1.6-4.53-1.06-1.1-2.48-1.65-4.25-1.64-2.54,0-4.73,1.08-6.54,3.22-1.82,2.14-3.22,4.87-4.22,8.19,2.41,2.25,5.1,3.37,8.08,3.36,2.64,0,4.72-.84,6.26-2.5Z"/>
      <path class="cls-5" d="M162.99,51.71c0-1.73.35-3.84,1.06-6.34.76-2.5,1.14-4.76,1.13-6.77,0-1.01-.14-1.87-.4-2.59-.27-.72-.78-1.27-1.55-1.65-.77-.38-1.35-.75-1.73-1.11-.39-.36-.58-.8-.58-1.33,0-.67.32-1.41.97-2.2.65-.79,1.48-1.46,2.51-1.99,1.03-.53,2.07-.8,3.13-.8,1.58,0,2.65.57,3.21,1.72.55,1.15.84,2.66.84,4.53,0,2.11-.34,4.97-1.05,8.57-.38,1.92-.56,3.48-.56,4.68,0,1.15.27,2.03.8,2.62.53.6,1.37,1.18,2.53,1.75.43.24.65.6.65,1.08,0,.53-.21,1.19-.64,1.98-.43.79-1.12,1.5-2.08,2.13-.96.63-2.16.94-3.6.95-3.07,0-4.61-1.74-4.63-5.24ZM164.15,19.23c-.79-.76-1.19-1.84-1.2-3.24.04-1.44.53-2.63,1.46-3.57.93-.94,2.12-1.41,3.56-1.42s2.56.36,3.35,1.11c.79.74,1.19,1.81,1.2,3.2,0,1.49-.46,2.71-1.39,3.68-.93.96-2.17,1.45-3.7,1.45-1.39-.04-2.49-.45-3.28-1.21Z"/>
      <path class="cls-5" d="M179.2,54.06c-1.88-2.03-2.82-4.87-2.84-8.52-.01-3.55.74-6.76,2.27-9.62,1.53-2.86,3.64-5.11,6.35-6.75,2.71-1.64,5.74-2.47,9.1-2.48,2.3,0,4.13.37,5.48,1.13,1.35.76,2.02,1.82,2.03,3.16,0,1.2-.57,2.38-1.72,3.53-.43.43-.99.83-1.69,1.19-.7.36-1.23.54-1.62.55-.43,0-.79-.17-1.08-.5-.67-.67-1.38-1.21-2.13-1.61-.75-.4-1.74-.61-2.99-.6-2.4,0-4.33.82-5.79,2.43-1.46,1.61-2.18,3.72-2.17,6.31,0,2.4.69,4.31,2.04,5.72,1.35,1.41,3.13,2.11,5.33,2.11,1.2,0,2.48-.21,3.85-.62,1.37-.41,2.55-1,3.56-1.78.53-.48,1.08-.72,1.65-.73.96,0,1.44.6,1.45,1.79,0,1.58-.78,3.1-2.36,4.54-1.25,1.11-2.85,2.01-4.82,2.72-1.97.7-3.96,1.06-5.97,1.06-3.41.01-6.05-1-7.93-3.03Z"/>
      <path class="cls-5" d="M206.96,54.94c-1.32-1.39-1.99-3.4-2-6.04,0-1.87.25-3.79.77-5.76.52-2.02.78-3.65.78-4.9,0-2.11-.66-3.48-1.96-4.1-.67-.38-1.15-.73-1.44-1.04-.29-.31-.43-.68-.44-1.12,0-1.15.68-2.27,2.04-3.35s2.77-1.63,4.21-1.63c2.74,0,4.11,2.22,4.13,6.68,0,2.3-.34,4.8-1.06,7.49-.43,1.92-.64,3.36-.63,4.32,0,2.4,1.19,3.6,3.54,3.59,2.21,0,4.27-1.19,6.18-3.55,1.91-2.36,3.48-5.65,4.72-9.88l-.08-1.37c-.1-2.35.31-4.16,1.24-5.44.93-1.27,2.31-1.92,4.13-1.92,1.58,0,2.38.5,2.38,1.5,0,.53-.24,1.58-.71,3.17-1.14,4.13-1.7,7.85-1.69,11.17,0,2.02.32,3.6.95,4.75.63,1.15,1.69,1.94,3.18,2.37.48.1.84.25,1.08.46.24.22.36.63.36,1.26,0,1.25-.51,2.4-1.54,3.46-1.03,1.06-2.38,1.59-4.06,1.6-3.5.01-5.26-2.45-5.28-7.4,0-.86.06-2.16.2-3.89l-.14-.07c-1.48,3.8-3.34,6.7-5.59,8.69-2.25,2-4.81,3-7.69,3.01-2.4,0-4.26-.68-5.59-2.07Z"/>
      <path class="cls-5" d="M240.11,55.05c1.23-5.09,1.84-9.25,1.83-12.46,0-2.4-.16-4.21-.45-5.43-.29-1.22-.68-2.05-1.16-2.48-.48-.43-1.18-.81-2.09-1.15-.87-.33-1.3-.86-1.3-1.58,0-.67.27-1.43.82-2.27.55-.84,1.31-1.55,2.3-2.13.98-.58,2.05-.87,3.2-.87,2.93,0,4.4,2.03,4.41,6.11.91-2.02,1.99-3.57,3.26-4.66,1.27-1.08,2.84-1.63,4.71-1.64,1.39,0,2.5.29,3.31.89.82.6,1.23,1.52,1.23,2.77,0,1.3-.41,2.51-1.25,3.64-.84,1.13-1.69,1.7-2.55,1.7-.43,0-.77-.14-1.01-.43-.63-.77-1.4-1.15-2.31-1.14-1.44,0-2.69.95-3.74,2.82-1.05,1.88-1.59,4.37-1.63,7.49l.17,6.41c0,1.83-.49,3.3-1.5,4.43-1,1.13-2.32,1.7-3.95,1.71-1.83,0-2.59-.57-2.31-1.72Z"/>
      <path class="cls-5" d="M261.24,53.72c-2.05-2.08-3.08-4.99-3.09-8.74-.01-3.31.72-6.39,2.2-9.22,1.48-2.84,3.49-5.09,6.03-6.75,2.54-1.67,5.29-2.5,8.27-2.51,2.88,0,5.19.69,6.92,2.1,1.73,1.41,2.6,3.29,2.61,5.64,0,1.87-.56,3.6-1.71,5.19-1.15,1.59-2.69,2.85-4.63,3.79s-4.06,1.42-6.37,1.42c-1.34,0-2.64-.16-3.89-.49-1.25-.33-2.31-.81-3.17-1.43.05,2.21.82,3.98,2.29,5.32,1.47,1.34,3.35,2,5.66,2,1.39,0,2.82-.26,4.28-.77,1.46-.51,2.72-1.2,3.77-2.06.67-.58,1.29-.87,1.87-.87.48,0,.88.15,1.19.46.31.31.47.71.47,1.19,0,1.06-.9,2.45-2.72,4.18-3.21,3.08-7.02,4.63-11.43,4.65-3.65.01-6.5-1.02-8.54-3.1ZM275.13,38.81c1.15-.72,1.72-1.64,1.72-2.74,0-.91-.39-1.62-1.16-2.12-.77-.5-1.83-.75-3.17-.75-1.82,0-3.38.48-4.67,1.42-1.29.94-2.22,2.25-2.79,3.93.67.43,1.54.76,2.6,1,1.06.24,2.11.35,3.17.35,1.73,0,3.17-.37,4.32-1.09Z"/>
      <path class="cls-5" d="M289.07,54.03c-1.73-1.82-2.61-4.38-2.62-7.7-.01-3.26.82-6.43,2.49-9.51,1.67-3.08,4.05-5.59,7.14-7.55s6.62-2.94,10.61-2.95c2.98,0,5.46.49,7.46,1.49,1.99,1,3,2.32,3,3.95,0,.53-.04,1.12-.14,1.76-.1.65-.21,1.19-.36,1.62-.38,1.01-.93,1.51-1.65,1.52-.19,0-.55-.07-1.08-.21-.38,2.16-.56,4.11-.56,5.83.01,4.46,1.39,6.96,4.13,7.47.53.14.9.31,1.12.5s.33.57.33,1.15c0,1.15-.39,2.31-1.18,3.46s-2.09,1.74-3.92,1.74c-1.87,0-3.32-.67-4.33-2.04-1.01-1.36-1.52-3.32-1.53-5.86-1.34,2.45-3.02,4.4-5.06,5.85-2.04,1.45-4.33,2.17-6.87,2.18-2.93,0-5.26-.89-6.99-2.71ZM303.3,47.5c1.48-1.16,2.66-2.7,3.51-4.62.95-2.02,1.54-4.64,1.77-7.85-1.83-.86-3.87-1.28-6.12-1.28-2.93,0-5.34.88-7.23,2.62-1.89,1.74-2.83,3.9-2.82,6.49,0,1.97.54,3.53,1.6,4.67,1.06,1.15,2.5,1.72,4.33,1.71s3.48-.59,4.96-1.75Z"/>
      <path class="cls-5" d="M322.48,54.78c1.23-5.09,1.84-9.25,1.83-12.46,0-2.4-.16-4.21-.45-5.43-.29-1.22-.68-2.05-1.16-2.48-.48-.43-1.18-.81-2.09-1.15-.87-.33-1.3-.86-1.3-1.58,0-.67.27-1.43.82-2.27.55-.84,1.31-1.55,2.3-2.13.98-.58,2.07-.87,3.27-.87,2.88,0,4.33,2.03,4.34,6.11,0,1.97-.34,4.66-1.05,8.07l.22.07c3.62-9.61,8.47-14.43,14.57-14.45,2.45,0,4.37.74,5.77,2.25,1.4,1.51,2.1,3.44,2.11,5.79,0,1.39-.33,3.15-.99,5.26-.57,1.83-.85,3.44-.85,4.83,0,2.78,1.31,4.63,3.91,5.53.67.29,1.01.72,1.01,1.29s-.17,1.27-.5,2.09c-.33.82-.89,1.54-1.68,2.17-.79.63-1.86.94-3.2.95-1.87,0-3.35-.66-4.44-2-1.08-1.34-1.63-3.09-1.64-5.25,0-1.63.39-3.98,1.2-7.06.52-2.3.78-3.82.78-4.54,0-2.21-1.16-3.31-3.47-3.3-2.69,0-4.99,1.4-6.9,4.16-1.91,2.77-3.46,6.19-4.65,10.28v1.73c.01,1.83-.49,3.3-1.49,4.43-1,1.13-2.32,1.7-3.95,1.71-1.73,0-2.5-.57-2.31-1.72Z"/>
      <path class="cls-5" d="M151.78,111.95c-2.09-1.5-3.15-4.23-3.16-8.16,0-1.68.23-4.06.7-7.13.42-2.45.72-4.59.88-6.41.16-1.82.24-3.82.23-5.98-.01-3.02-.19-5.69-.53-7.99l-1.44.22c-.38,0-.65-.08-.79-.25-.15-.17-.22-.49-.22-.97,0-1.01.11-2,.35-2.99.24-.98.57-1.79,1-2.42.81-1.15,2.06-1.83,3.74-2.03,1.97-.25,4.55-.46,7.74-.64,3.19-.18,5.94-.27,8.24-.28,4.42-.01,7.03.07,7.85.26.67.09,1.15.3,1.44.61.29.31.43.78.44,1.4,0,1.44-.5,2.76-1.5,3.96-.57.77-1.12,1.3-1.65,1.59-.53.29-1.25.41-2.16.37-3.55-.23-6.51-.34-8.86-.33-2.54,0-4.87.11-6.98.31.01,3.26-.24,7.08-.75,11.45,4.37-.3,9.33-.46,14.9-.48,1.01,0,1.68.1,2.02.32.34.22.51.71.51,1.47,0,.82-.2,1.69-.6,2.63-.41.94-.94,1.72-1.61,2.35-.34.34-.67.58-1.01.72-.34.15-.77.2-1.3.15-3.12-.13-6.67-.19-10.66-.18h-3.24c-.38,2.41-.56,4.24-.56,5.48,0,2.59.69,4.43,2.03,5.5,1.35,1.08,3.56,1.61,6.63,1.6,1.97,0,3.82-.19,5.54-.56,1.73-.37,3.48-.98,5.25-1.85.67-.39,1.17-.58,1.51-.58.53,0,1.04.37,1.55,1.11.51.74.76,1.55.76,2.41,0,1.06-.38,2.04-1.14,2.96-.77.91-1.82,1.73-3.16,2.46-1.44.68-3.19,1.2-5.25,1.57-2.06.37-4.22.55-6.48.56-4.75.02-8.17-.73-10.27-2.23Z"/>
      <path class="cls-5" d="M183.92,108.56c-.15-2.69-.56-5.53-1.22-8.53s-1.42-5.22-2.29-6.65c-.34-.53-.72-.92-1.16-1.18-.43-.26-1.03-.44-1.8-.53-.53-.04-.89-.2-1.08-.46-.19-.26-.29-.73-.29-1.4,0-1.82.5-3.24,1.53-4.25,1.03-1.01,2.29-1.52,3.77-1.52,2.64,0,4.52,1.51,5.63,4.55,1.11,3.05,1.68,6.78,1.69,11.19l-.06,4.54c0,.58.12,1,.36,1.26.24.26.65.39,1.23.39,1.06,0,2.31-.43,3.78-1.27,1.46-.84,2.7-2.01,3.73-3.5,1.03-1.49,1.54-3.12,1.53-4.9,0-.91-.15-1.81-.44-2.7-.29-.89-.7-1.62-1.23-2.19-.63-.67-1.06-1.18-1.3-1.54-.24-.36-.36-.75-.36-1.19,0-.77.38-1.52,1.15-2.27.76-.75,1.7-1.35,2.8-1.81,1.1-.46,2.06-.69,2.88-.69,1.25,0,2.1.51,2.56,1.54.46,1.03.69,2.36.7,3.99.01,3.5-.82,7.2-2.48,11.1-1.67,3.89-3.83,7.14-6.48,9.74-2.65,2.6-5.35,3.91-8.09,3.91-3.02,0-4.71-1.86-5.06-5.6Z"/>
      <path class="cls-5" d="M210.74,110.89c-2.05-2.08-3.08-4.99-3.09-8.74-.01-3.31.72-6.39,2.2-9.22,1.48-2.84,3.49-5.09,6.03-6.75,2.54-1.67,5.29-2.5,8.27-2.51,2.88,0,5.19.69,6.92,2.1,1.73,1.41,2.6,3.29,2.61,5.64,0,1.87-.56,3.6-1.71,5.19-1.15,1.59-2.69,2.85-4.63,3.79s-4.06,1.42-6.37,1.42c-1.34,0-2.64-.16-3.89-.49-1.25-.33-2.31-.81-3.17-1.43.05,2.21.82,3.98,2.29,5.32,1.47,1.34,3.35,2,5.66,2,1.39,0,2.82-.26,4.28-.77,1.46-.51,2.72-1.2,3.77-2.06.67-.58,1.29-.87,1.87-.87.48,0,.88.15,1.19.46.31.31.47.71.47,1.19,0,1.06-.9,2.45-2.72,4.18-3.21,3.08-7.02,4.63-11.43,4.65-3.65.01-6.5-1.02-8.54-3.1ZM224.63,95.97c1.15-.72,1.72-1.64,1.72-2.74,0-.91-.39-1.62-1.16-2.12-.77-.5-1.83-.75-3.17-.75-1.82,0-3.38.48-4.68,1.42-1.29.94-2.22,2.25-2.8,3.93.67.43,1.54.76,2.6,1,1.06.24,2.11.35,3.17.35,1.73,0,3.17-.37,4.32-1.09Z"/>
      <path class="cls-5" d="M238.36,112.06c1.23-5.09,1.84-9.25,1.83-12.46,0-2.4-.16-4.21-.45-5.43s-.68-2.05-1.16-2.48c-.48-.43-1.18-.81-2.09-1.15-.87-.33-1.3-.86-1.3-1.58,0-.67.27-1.43.82-2.27.55-.84,1.31-1.55,2.3-2.13.98-.58,2.07-.87,3.27-.87,2.88,0,4.33,2.03,4.34,6.11,0,1.97-.35,4.66-1.05,8.07l.22.07c3.62-9.61,8.47-14.43,14.57-14.45,2.45,0,4.37.74,5.77,2.25,1.4,1.51,2.1,3.44,2.11,5.79,0,1.39-.33,3.15-.99,5.26-.57,1.83-.85,3.44-.85,4.83,0,2.78,1.31,4.63,3.91,5.53.67.29,1.01.72,1.01,1.29s-.16,1.27-.5,2.09c-.33.82-.89,1.54-1.68,2.17s-1.86.94-3.2.95c-1.87,0-3.35-.66-4.43-2-1.08-1.34-1.63-3.09-1.64-5.25,0-1.63.39-3.98,1.2-7.06.52-2.31.78-3.82.78-4.54,0-2.21-1.16-3.31-3.47-3.3-2.69,0-4.99,1.4-6.9,4.16-1.91,2.77-3.46,6.19-4.65,10.28v1.73c.01,1.83-.49,3.3-1.49,4.43-1,1.13-2.32,1.7-3.95,1.71-1.73,0-2.5-.57-2.31-1.72Z"/>
      <path class="cls-5" d="M274.06,108.34c0-1.73.35-3.84,1.06-6.34.76-2.5,1.14-4.76,1.13-6.77,0-1.01-.14-1.87-.41-2.59-.27-.72-.78-1.27-1.55-1.65s-1.35-.75-1.73-1.11c-.39-.36-.58-.8-.58-1.33,0-.67.32-1.4.96-2.2.64-.79,1.48-1.46,2.51-1.99,1.03-.53,2.07-.8,3.13-.8,1.58,0,2.65.57,3.21,1.72.56,1.15.84,2.66.84,4.53,0,2.11-.34,4.97-1.05,8.57-.38,1.92-.56,3.48-.56,4.68,0,1.15.27,2.03.8,2.63.53.6,1.37,1.18,2.53,1.75.43.24.65.6.65,1.08,0,.53-.21,1.19-.64,1.98-.43.79-1.12,1.5-2.08,2.13-.96.63-2.16.94-3.6.95-3.07.01-4.61-1.74-4.63-5.24ZM275.21,75.86c-.79-.77-1.19-1.84-1.2-3.24.04-1.44.53-2.63,1.46-3.57.93-.94,2.12-1.41,3.56-1.42,1.44,0,2.56.36,3.35,1.1.79.74,1.2,1.81,1.2,3.2,0,1.49-.46,2.71-1.39,3.68-.93.96-2.17,1.45-3.7,1.45-1.39-.04-2.49-.45-3.28-1.21Z"/>
      <path class="cls-5" d="M289.48,111.89c1.23-5.09,1.84-9.25,1.83-12.46,0-2.4-.16-4.21-.45-5.43-.29-1.22-.68-2.05-1.16-2.48-.48-.43-1.18-.81-2.09-1.15-.87-.33-1.3-.86-1.3-1.58,0-.67.27-1.43.82-2.27.55-.84,1.31-1.55,2.3-2.13.98-.58,2.07-.87,3.27-.87,2.88,0,4.33,2.03,4.34,6.1,0,1.97-.34,4.66-1.05,8.07l.22.07c3.61-9.61,8.47-14.43,14.57-14.45,2.45,0,4.37.74,5.77,2.25,1.4,1.51,2.1,3.44,2.11,5.79,0,1.39-.33,3.15-.99,5.26-.57,1.83-.85,3.44-.85,4.83,0,2.78,1.31,4.63,3.91,5.53.67.29,1.01.72,1.01,1.29s-.16,1.27-.5,2.09-.89,1.54-1.68,2.17c-.79.63-1.86.94-3.2.95-1.87,0-3.35-.66-4.44-2-1.08-1.34-1.63-3.09-1.64-5.25,0-1.63.39-3.99,1.2-7.06.52-2.3.78-3.82.78-4.54,0-2.21-1.16-3.31-3.47-3.3-2.69,0-4.99,1.4-6.9,4.16-1.91,2.77-3.46,6.19-4.65,10.28v1.73c.01,1.83-.49,3.3-1.49,4.43-1,1.13-2.32,1.7-3.95,1.71-1.73,0-2.5-.57-2.31-1.72Z"/>
      <path class="cls-5" d="M324.57,130.39c-2.14-1.46-3.21-3.39-3.22-5.79,0-1.78.54-3.33,1.64-4.65,1.1-1.33,2.51-1.99,4.24-2,1.01,0,1.51.28,1.52.86,0,.24-.06.64-.18,1.19-.12.55-.18.97-.18,1.26,0,1.3.74,2.28,2.21,2.94,1.46.67,3.35,1,5.66.99,2.35,0,4.44-.36,6.26-1.06,1.82-.7,2.73-1.75,2.73-3.14,0-1.3-.78-2.21-2.31-2.73-1.54-.52-3.79-.97-6.77-1.35-.34-.05-1.25-.18-2.74-.39-1.49-.21-2.71-.51-3.67-.89-1.63-.52-2.82-1.18-3.57-1.97-.75-.79-1.12-1.76-1.13-2.91,0-2.25,1.35-4.06,4.09-5.41-1.54-.81-2.72-1.95-3.54-3.41-.82-1.46-1.23-3.13-1.24-5,0-2.4.61-4.65,1.85-6.74,1.24-2.09,3.1-3.78,5.56-5.06s5.45-1.93,8.96-1.94c2.98,0,5.53.43,7.67,1.31,2.14.88,3.21,2.38,3.22,4.49,0,.72-.13,1.39-.39,2.02-.26.62-.7.94-1.33.94-.53,0-1.34-.16-2.45-.5.24,1.1.37,2.23.37,3.38,0,2.98-.98,5.57-2.96,7.79-1.99,2.21-4.75,3.54-8.3,3.99-1.44.1-2.46.26-3.06.48-.6.22-.9.59-.9,1.12,0,.48.25.82.76,1.01.5.19,1.29.36,2.34.5,3.31.28,6.03.71,8.14,1.3,2.11.59,3.78,1.52,5.01,2.79,1.23,1.27,1.85,3.03,1.85,5.29,0,2.64-.78,4.98-2.35,7.03s-3.72,3.62-6.43,4.74c-2.71,1.11-5.65,1.67-8.82,1.69-3.55.01-6.4-.71-8.54-2.17ZM340.88,98.54c1.27-1.2,1.9-2.77,1.89-4.69,0-.96-.15-1.97-.44-3.02-1.35-.38-2.79-.57-4.32-.56-2.54,0-4.54.49-5.97,1.46-1.44.97-2.15,2.29-2.15,3.97,0,1.44.54,2.58,1.59,3.42,1.06.84,2.48,1.25,4.25,1.25,2.16,0,3.87-.61,5.14-1.82Z"/>
      <path class="cls-5" d="M354.89,111.78c-2-1.17-3-2.74-3-4.71,0-.82.19-1.52.57-2.13.38-.6.96-.9,1.72-.91.43,0,.89.12,1.37.36.96.57,2.1,1.04,3.42,1.39,1.32.36,2.7.53,4.14.53,1.73,0,3.23-.26,4.5-.77,1.27-.51,1.9-1.17,1.9-1.99,0-.62-.45-1.09-1.34-1.4-.89-.31-2.58-.63-5.08-.96-2.16-.33-3.88-.7-5.15-1.1-1.27-.4-2.36-1.07-3.25-2-.89-.93-1.34-2.26-1.34-3.99,0-1.82.5-3.58,1.53-5.26,1.03-1.68,2.52-3.06,4.49-4.12,1.96-1.06,4.31-1.6,7.05-1.61,2.4,0,4.52.39,6.38,1.2,1.85.81,2.78,1.91,2.78,3.3,0,.82-.28,1.6-.86,2.34-.57.75-1.26,1.35-2.05,1.81-.79.46-1.47.69-2.05.69-.24,0-.47-.07-.68-.21-.22-.14-.45-.33-.69-.57-1.44-1.19-3.32-1.79-5.62-1.78-1.44,0-2.6.22-3.49.66-.89.44-1.33.99-1.33,1.66,0,.86.64,1.49,1.91,1.87,1.27.38,2.99.69,5.15.92,3.07.42,5.36,1.12,6.85,2.1,1.49.98,2.24,2.57,2.25,4.78,0,1.87-.52,3.71-1.57,5.51-1.05,1.8-2.56,3.27-4.52,4.41-1.96,1.13-4.24,1.71-6.83,1.71-2.78,0-5.17-.57-7.17-1.74Z"/>
    </g>
  </g>
</svg>